<mxfile host="app.diagrams.net" modified="2024-05-23T15:47:16.744Z" agent="Mozilla/5.0 (Macintosh; Intel Mac OS X 10_15_7) AppleWebKit/537.36 (KHTML, like Gecko) Chrome/124.0.0.0 Safari/537.36" version="24.4.6" etag="m_t7so_QXGwL41Bc7OgW" type="github">
  <diagram name="Page-1" id="b5kPO0zF-ZWGwVatfDIk">
    <mxGraphModel>
      <root>
        <mxCell id="0" />
        <mxCell id="1" parent="0" />
      </root>
    </mxGraphModel>
  </diagram>
</mxfile>
